HIERARCHY
ROOT Hips
{
    OFFSET   0.000000   0.000000   0.000000
    CHANNELS 6 Xposition Yposition Zposition Zrotation Xrotation Yrotation
    JOINT Chest
    {
        OFFSET   0.000000   8.007230   0.000000
        CHANNELS 3 Zrotation Xrotation Yrotation
        JOINT Chest2
        {
            OFFSET   0.000000  22.077100   0.000000
            CHANNELS 3 Zrotation Xrotation Yrotation
            JOINT Neck
            {
                OFFSET   0.000000  23.254700   0.000000
                CHANNELS 3 Zrotation Xrotation Yrotation
                JOINT Head
                {
                    OFFSET   0.000010  14.370000   1.956610
                    CHANNELS 3 Zrotation Xrotation Yrotation
                    End Site
                    {
                        OFFSET   0.000000  19.566000   0.000000
                    }
                }
            }
            JOINT LeftCollar
            {
                OFFSET   3.911900  19.017000  -0.467063
                CHANNELS 3 Zrotation Xrotation Yrotation
                JOINT LeftShoulder
                {
                    OFFSET  10.383700   0.000000   0.000000
                    CHANNELS 3 Zrotation Xrotation Yrotation
                    JOINT LeftElbow
                    {
                        OFFSET  26.662100   0.001671   0.000522
                        CHANNELS 3 Zrotation Xrotation Yrotation
                        JOINT LeftWrist
                        {
                            OFFSET  28.869000   0.000037  -0.000114
                            CHANNELS 3 Zrotation Xrotation Yrotation
                            JOINT LeftFinger0
                            {
                                OFFSET   2.044650  -2.323450   3.252850
                                CHANNELS 3 Zrotation Xrotation Yrotation
                                JOINT LeftFinger01
                                {
                                    OFFSET   3.088140   0.000000   0.000000
                                    CHANNELS 3 Zrotation Xrotation Yrotation
                                    JOINT LeftFinger02
                                    {
                                        OFFSET   2.639460   0.000000   0.000000
                                        CHANNELS 3 Zrotation Xrotation Yrotation
                                        End Site
                                        {
                                            OFFSET   2.582190   0.000000   0.000000
                                        }
                                    }
                                }
                            }
                            JOINT LeftFinger1
                            {
                                OFFSET   8.364480   0.000000   3.252850
                                CHANNELS 3 Zrotation Xrotation Yrotation
                                JOINT LeftFinger11
                                {
                                    OFFSET   4.646930   0.000000   0.000000
                                    CHANNELS 3 Zrotation Xrotation Yrotation
                                    JOINT LeftFinger12
                                    {
                                        OFFSET   2.323470   0.000000   0.000000
                                        CHANNELS 3 Zrotation Xrotation Yrotation
                                        End Site
                                        {
                                            OFFSET   2.273050   0.000000   0.000000
                                        }
                                    }
                                }
                            }
                            JOINT LeftFinger2
                            {
                                OFFSET   8.364490   0.000016   1.078090
                                CHANNELS 3 Zrotation Xrotation Yrotation
                                JOINT LeftFinger21
                                {
                                    OFFSET   5.111620   0.000000   0.000000
                                    CHANNELS 3 Zrotation Xrotation Yrotation
                                    JOINT LeftFinger22
                                    {
                                        OFFSET   2.788150   0.000013   0.000000
                                        CHANNELS 3 Zrotation Xrotation Yrotation
                                        End Site
                                        {
                                            OFFSET   2.727660   0.000000   0.000000
                                        }
                                    }
                                }
                            }
                            JOINT LeftFinger3
                            {
                                OFFSET   7.899780   0.000016  -1.078090
                                CHANNELS 3 Zrotation Xrotation Yrotation
                                JOINT LeftFinger31
                                {
                                    OFFSET   4.646930   0.000000   0.000000
                                    CHANNELS 3 Zrotation Xrotation Yrotation
                                    JOINT LeftFinger32
                                    {
                                        OFFSET   2.323470   0.000000   0.000000
                                        CHANNELS 3 Zrotation Xrotation Yrotation
                                        End Site
                                        {
                                            OFFSET   2.273050   0.000000   0.000000
                                        }
                                    }
                                }
                            }
                            JOINT LeftFinger4
                            {
                                OFFSET   7.435080   0.000000  -3.252850
                                CHANNELS 3 Zrotation Xrotation Yrotation
                                JOINT LeftFinger41
                                {
                                    OFFSET   3.717550   0.000000   0.000000
                                    CHANNELS 3 Zrotation Xrotation Yrotation
                                    JOINT LeftFinger42
                                    {
                                        OFFSET   1.858760   0.000000   0.000000
                                        CHANNELS 3 Zrotation Xrotation Yrotation
                                        End Site
                                        {
                                            OFFSET   1.818440   0.000000   0.000000
                                        }
                                    }
                                }
                            }
                        }
                    }
                }
            }
            JOINT RightCollar
            {
                OFFSET  -3.911900  19.017000  -0.467064
                CHANNELS 3 Zrotation Xrotation Yrotation
                JOINT RightShoulder
                {
                    OFFSET -10.383700   0.000000   0.000000
                    CHANNELS 3 Zrotation Xrotation Yrotation
                    JOINT RightElbow
                    {
                        OFFSET -26.662100   0.001633   0.000260
                        CHANNELS 3 Zrotation Xrotation Yrotation
                        JOINT RightWrist
                        {
                            OFFSET -28.869000  -0.000045  -0.000080
                            CHANNELS 3 Zrotation Xrotation Yrotation
                            JOINT RightFinger0
                            {
                                OFFSET  -2.044660  -2.323490   3.252850
                                CHANNELS 3 Zrotation Xrotation Yrotation
                                JOINT RightFinger01
                                {
                                    OFFSET  -3.088140   0.000000   0.000000
                                    CHANNELS 3 Zrotation Xrotation Yrotation
                                    JOINT RightFinger02
                                    {
                                        OFFSET  -2.639450   0.000000   0.000000
                                        CHANNELS 3 Zrotation Xrotation Yrotation
                                        End Site
                                        {
                                            OFFSET  -2.582190   0.000000   0.000000
                                        }
                                    }
                                }
                            }
                            JOINT RightFinger1
                            {
                                OFFSET  -8.364480   0.000000   3.252850
                                CHANNELS 3 Zrotation Xrotation Yrotation
                                JOINT RightFinger11
                                {
                                    OFFSET  -4.646920   0.000000   0.000000
                                    CHANNELS 3 Zrotation Xrotation Yrotation
                                    JOINT RightFinger12
                                    {
                                        OFFSET  -2.323470   0.000000   0.000000
                                        CHANNELS 3 Zrotation Xrotation Yrotation
                                        End Site
                                        {
                                            OFFSET  -2.273050   0.000000   0.000000
                                        }
                                    }
                                }
                            }
                            JOINT RightFinger2
                            {
                                OFFSET  -8.364480   0.000000   1.078090
                                CHANNELS 3 Zrotation Xrotation Yrotation
                                JOINT RightFinger21
                                {
                                    OFFSET  -5.111610   0.000000   0.000000
                                    CHANNELS 3 Zrotation Xrotation Yrotation
                                    JOINT RightFinger22
                                    {
                                        OFFSET  -2.788160   0.000000   0.000000
                                        CHANNELS 3 Zrotation Xrotation Yrotation
                                        End Site
                                        {
                                            OFFSET  -2.727660   0.000000   0.000000
                                        }
                                    }
                                }
                            }
                            JOINT RightFinger3
                            {
                                OFFSET  -7.899780   0.000000  -1.078090
                                CHANNELS 3 Zrotation Xrotation Yrotation
                                JOINT RightFinger31
                                {
                                    OFFSET  -4.646930   0.000000   0.000000
                                    CHANNELS 3 Zrotation Xrotation Yrotation
                                    JOINT RightFinger32
                                    {
                                        OFFSET  -2.323470   0.000000   0.000000
                                        CHANNELS 3 Zrotation Xrotation Yrotation
                                        End Site
                                        {
                                            OFFSET  -2.273050   0.000000   0.000000
                                        }
                                    }
                                }
                            }
                            JOINT RightFinger4
                            {
                                OFFSET  -7.435090   0.000000  -3.252850
                                CHANNELS 3 Zrotation Xrotation Yrotation
                                JOINT RightFinger41
                                {
                                    OFFSET  -3.717550   0.000000   0.000000
                                    CHANNELS 3 Zrotation Xrotation Yrotation
                                    JOINT RightFinger42
                                    {
                                        OFFSET  -1.858760   0.000000   0.000000
                                        CHANNELS 3 Zrotation Xrotation Yrotation
                                        End Site
                                        {
                                            OFFSET  -1.818440   0.000000   0.000000
                                        }
                                    }
                                }
                            }
                        }
                    }
                }
            }
        }
    }
    JOINT LeftHip
    {
        OFFSET   9.782990   0.000000   0.000000
        CHANNELS 3 Zrotation Xrotation Yrotation
        JOINT LeftKnee
        {
            OFFSET  -0.000063 -41.789100   0.001657
            CHANNELS 3 Zrotation Xrotation Yrotation
            JOINT LeftAnkle
            {
                OFFSET   0.000078 -41.133200  -0.000113
                CHANNELS 3 Zrotation Xrotation Yrotation
                JOINT LeftToe
                {
                    OFFSET   0.000000  -6.358970  14.674500
                    CHANNELS 3 Zrotation Xrotation Yrotation
                    End Site
                    {
                        OFFSET   0.000000   0.000000   3.913200
                    }
                }
            }
        }
    }
    JOINT RightHip
    {
        OFFSET  -9.782990   0.000000   0.000000
        CHANNELS 3 Zrotation Xrotation Yrotation
        JOINT RightKnee
        {
            OFFSET   0.000053 -41.789200   0.000277
            CHANNELS 3 Zrotation Xrotation Yrotation
            JOINT RightAnkle
            {
                OFFSET   0.000030 -41.133200  -0.000150
                CHANNELS 3 Zrotation Xrotation Yrotation
                JOINT RightToe
                {
                    OFFSET   0.000000  -6.358960  14.674500
                    CHANNELS 3 Zrotation Xrotation Yrotation
                    End Site
                    {
                        OFFSET   0.000000   0.000000   3.913200
                    }
                }
            }
        }
    }
}
MOTION
Frames: 4
Frame Time:   0.016667
  3.961920  88.965400  -3.768240  -7.328250 -24.132600  -8.179760  -0.867852  14.896400   3.921720  -2.991100  29.688800   8.542300   0.862942  -2.159500   0.041181   1.422930  -4.375930   0.985458  -4.047790 -12.653400  -3.403690 -29.739300  12.197200 -66.145500  21.140900  -1.527250 -39.183600   2.293750 -44.247800  -3.497100  53.984300  45.999800 -69.094400 -28.795700  -0.006407   0.004486  -9.397860  -0.004281   0.001832 -38.592000   2.334830  -2.866020 -31.606800   0.089288   0.121960 -22.290200   0.025273   0.127127 -31.078700  -3.441790   5.772910 -48.782600   0.076986   0.047978 -32.270700   0.019230   0.066104 -27.281700  -3.023960   5.889400 -32.117300   0.156952   0.108829 -21.387900   0.065967   0.106720 -32.866500  -3.408560   5.525430 -49.464900   0.089782   0.140819 -32.943400  -0.006164   0.103581  10.011400 -10.256800  12.622300  33.687700   4.163470  49.972500 -30.830800  -8.885090  30.184100   0.998276 -36.219600  10.925800 -60.132100  47.002100  85.065000  23.330500  -0.109953   0.038306   6.665220  -0.051652   0.027270  48.648900   9.764740   8.673210  40.333600   0.138826  -0.082442  29.894200   0.060714  -0.098277  32.101100   1.953780   2.954860  51.188300   0.098861  -0.036388  33.302200   0.061251  -0.113117  32.096500  -0.384151  -0.735779  45.944800   0.263640  -0.082073  30.554200   0.117488  -0.133064  46.876900  -2.898040  -2.462360  70.195500   0.213954  -0.333079  46.748800  -0.096503  -0.255863   1.214500  27.097300   8.565730   0.771132   0.027945   4.723320   1.007500  -3.323890   7.210590  -0.000000   0.000000  -0.000000   3.528760  16.920700  -3.068160  -4.614640  17.389100  -5.420950   3.538750  -8.714500   3.693640   0.000000   0.000000  -0.000000
  3.861700  89.003000  -3.645610  -7.297540 -23.686800  -7.938560  -0.745084  14.600200   3.797690  -2.663800  29.111300   8.220060   0.827040  -2.226710   0.040877   1.364450  -4.512150   0.926953  -4.430410 -12.720200  -3.657670 -29.296900  14.011700 -63.217900  21.416400  -0.524795 -41.265200   2.880120 -43.438000  -2.733570  52.192900  45.693900 -67.213300 -30.068400  -0.001331   0.010573 -10.034200  -0.002996   0.002799 -42.658000   1.984750  -1.968290 -34.909500   0.067226   0.154986 -25.179700  -0.004345   0.145148 -33.624700  -3.509560   5.433220 -52.131100   0.042422   0.034449 -34.596400   0.000000   0.054597 -27.675300  -3.649480   7.029380 -36.815100   0.133429   0.121504 -24.518800   0.044565   0.111460 -35.352700  -4.526860   6.388130 -53.324700   0.057293   0.152477 -35.514100  -0.031507   0.104075  10.439100 -10.177300  12.867200  33.352300   5.876580  47.396200 -31.244500  -7.589360  31.665900   0.085238 -32.452200  10.931400 -57.207400  47.143300  83.366800  26.233800  -0.088853   0.020943   8.116900  -0.042268   0.017474  52.977500   9.436180   7.060260  43.743200   0.100879  -0.090591  32.919000   0.024065  -0.098334  35.878900   0.696771   1.078840  54.169700   0.039595  -0.038208  36.014000   0.026415  -0.101620  34.206000  -1.954660  -2.784200  51.746700   0.152645  -0.096182  34.511000   0.054828  -0.134098  51.440700  -4.857870  -3.951160  77.270700   0.141903  -0.334649  51.461900  -0.122633  -0.208284   1.384960  26.740800   8.388810   0.792312  -0.001082   4.731100   0.963017  -3.384760   7.130210  -0.000000   0.000000   0.000000   3.658360  16.941000  -3.198680  -4.505560  16.721100  -5.584620   3.490300  -8.542240   3.699480   0.000000   0.000000  -0.000000
  3.751460  89.040700  -3.513770  -7.246580 -23.225700  -7.656560  -0.621673  14.291200   3.640670  -2.327930  28.508100   7.830840   0.789234  -2.298050   0.040585   1.302750  -4.657050   0.967459  -4.781980 -12.639900  -3.782290 -29.434000  15.873000 -60.127800  21.116800   0.065789 -43.185300   3.291030 -42.454600  -2.246110  51.311500  45.439100 -65.626400 -30.675800   0.003052   0.010880 -10.337900  -0.001724   0.001417 -46.541100   0.792796  -0.693259 -38.059900   0.036230   0.127965 -28.102000  -0.021655   0.110376 -38.562700  -3.490500   4.652450 -53.526500   0.015060   0.018563 -36.535200  -0.010977   0.037953 -28.473700  -4.510760   8.244030 -41.262400   0.075777   0.097484 -27.524500   0.017323   0.077702 -37.756900  -5.674670   7.371300 -57.143500   0.024288   0.120456 -38.057500  -0.039293   0.077835  10.790000  -9.978910  13.092500  33.697500   7.255220  44.804200 -31.345100  -5.699870  33.320500  -0.682945 -29.341700  11.189700 -54.277200  46.587200  80.947400  28.353900  -0.055542   0.003147   9.176930  -0.027120   0.004641  55.664100   8.409910   5.636980  45.825800   0.053734  -0.073694  34.490100  -0.000418  -0.069565  39.206400  -0.992259  -1.261150  54.521100   0.007529  -0.013159  37.371100   0.011103  -0.054244  36.405000  -3.634480  -5.013720  54.163100   0.046176  -0.039132  36.362100   0.025899  -0.079085  54.801400  -6.459400  -4.665560  82.490300   0.062903  -0.248728  54.958800  -0.103287  -0.123901   1.568410  26.334600   8.185140   0.804779   0.036800   4.710180   0.914530  -3.483910   7.060110  -0.000000   0.000000   0.000000   3.820970  16.974800  -3.341580  -4.414110  15.997500  -5.746800   3.399120  -8.357380   3.634150   0.000000   0.000000   0.000000
  3.632380  89.081000  -3.371150  -7.189810 -22.757200  -7.360650  -0.495757  13.976200   3.479050  -1.989360  27.891800   7.434990   0.751691  -2.376390   0.040305   1.240450  -4.816180   1.008010  -5.125970 -12.439500  -3.853340 -29.881100  17.706300 -56.900700  20.351800   0.566261 -44.844600   3.603230 -41.328700  -1.952930  50.493300  45.070200 -63.875100 -31.058300   0.004971   0.010924 -10.529200  -0.000663  -0.000944 -50.111800  -0.514343   0.486732 -40.995800   0.003195   0.089412 -30.782200  -0.034384   0.059598 -44.290600  -3.450340   3.774360 -53.894800  -0.008166   0.008561 -38.141000  -0.021031   0.021932 -29.517900  -5.055310   8.989410 -45.335200   0.018855   0.062296 -30.228100  -0.008847   0.039966 -40.073800  -6.809280   8.191810 -60.857900  -0.008916   0.088435 -40.531400  -0.044105   0.039604  11.138600  -9.752590  13.346300  34.341500   8.532440  42.108800 -30.945300  -3.870730  34.895800  -1.421490 -26.526900  11.482500 -51.437600  45.687100  78.313200  29.947900  -0.025928  -0.012369   9.973940  -0.013775  -0.003680  57.773000   6.848250   4.244350  47.447800   0.010509  -0.056797  35.585900  -0.019297  -0.039239  42.529100  -2.558150  -2.885420  54.571300  -0.005866   0.011890  38.152100   0.001310  -0.016721  39.285100  -5.109260  -6.360420  54.760000  -0.016801   0.017918  37.450300   0.006004  -0.024071  57.790100  -7.764280  -4.927240  87.138900  -0.015309  -0.132439  58.048600  -0.083941  -0.035483   1.757270  25.913100   7.975300   0.813300   0.093280   4.668640   0.862856  -3.592000   6.997590  -0.000000   0.000000  -0.000000   3.999720  17.016800  -3.426450  -4.328690  15.242800  -5.930560   3.272760  -8.162150   3.512080   0.000000   0.000000   0.000000
